<svg width="25" height="24" viewBox="0 0 25 24" fill="none" xmlns="http://www.w3.org/2000/svg">
<path d="M16.5287 2.74617C12.8674 -0.915064 6.90851 -0.915064 3.24728 2.74617C-0.413156 6.40819 -0.413156 12.3663 3.24728 16.0284C6.50771 19.288 11.5857 19.6372 15.2445 17.0919C15.3215 17.4562 15.4977 17.8038 15.781 18.0872L21.113 23.4191C21.89 24.1945 23.1456 24.1945 23.9186 23.4191C24.6948 22.6429 24.6948 21.3873 23.9186 20.6134L18.5867 15.2799C18.3049 14.999 17.9565 14.822 17.5922 14.745C20.1391 11.0853 19.7899 6.00818 16.5287 2.74617ZM14.8453 14.345C12.1119 17.0784 7.6633 17.0784 4.93067 14.345C2.19883 11.6115 2.19883 7.16377 4.93067 4.43035C7.6633 1.69772 12.1119 1.69772 14.8453 4.43035C17.5787 7.16377 17.5787 11.6115 14.8453 14.345Z" fill="white"/>
</svg>
