<svg width="325" height="66" viewBox="0 0 325 66" fill="none" xmlns="http://www.w3.org/2000/svg">
<path d="M58.2532 45.1421C58.2662 43.9051 58.3704 42.8765 58.5657 42.0562C58.761 41.2228 59.08 40.4741 59.5227 39.8101C59.9654 39.146 60.5969 38.4168 61.4172 37.6226C62.2115 36.8674 62.804 36.2749 63.1946 35.8452C63.5852 35.4025 63.9107 34.9077 64.1711 34.3608C64.4446 33.8009 64.5813 33.1759 64.5813 32.4858C64.5813 31.2879 64.2818 30.37 63.6829 29.7319C63.0969 29.0939 62.2375 28.7749 61.1047 28.7749C60.0891 28.7749 59.2232 29.0679 58.5071 29.6538C57.7909 30.2397 57.4264 31.1121 57.4133 32.271H52.55C52.5761 30.6564 52.9602 29.2827 53.7024 28.1499C54.4446 27.0171 55.4537 26.1642 56.7297 25.5913C58.0188 25.0184 59.4771 24.7319 61.1047 24.7319C62.8495 24.7319 64.3469 25.0314 65.5969 25.6304C66.8599 26.2163 67.817 27.0757 68.468 28.2085C69.1321 29.3413 69.4641 30.702 69.4641 32.2905C69.4641 33.3713 69.2428 34.3739 68.8 35.2983C68.3704 36.2098 67.8235 37.0431 67.1594 37.7983C66.5084 38.5405 65.649 39.4064 64.5813 40.396C63.9172 41.021 63.4485 41.7111 63.175 42.4663C62.9146 43.2085 62.7779 44.1004 62.7649 45.1421H58.2532ZM60.636 48.5796C61.4823 48.5796 62.1529 48.827 62.6477 49.3218C63.1425 49.8166 63.3899 50.4416 63.3899 51.1968C63.3899 51.952 63.1425 52.577 62.6477 53.0718C62.1529 53.5535 61.4823 53.7944 60.636 53.7944C59.7896 53.7944 59.1191 53.5535 58.6243 53.0718C58.1295 52.577 57.8821 51.952 57.8821 51.1968C57.8821 50.4416 58.1295 49.8166 58.6243 49.3218C59.1191 48.827 59.7896 48.5796 60.636 48.5796ZM79.093 48.6577C80.2779 49.1655 81.5344 49.5627 82.8625 49.8491C84.1907 50.1356 85.4407 50.2788 86.6125 50.2788C88.4745 50.2788 90.1152 50.0184 91.5344 49.4976C92.9667 48.9637 94.0865 48.1564 94.8938 47.0757C95.7011 45.9819 96.1047 44.6147 96.1047 42.9741V30.3374H100.89V43.5015C100.89 45.8192 100.265 47.7853 99.0149 49.3999C97.7649 51.0015 96.0787 52.2059 93.9563 53.0132C91.8339 53.8075 89.4576 54.2046 86.8274 54.2046C84.7831 54.2046 82.6737 53.9637 80.4993 53.4819C78.3248 52.9871 76.261 52.271 74.3079 51.3335V30.3374H79.093V48.6577ZM83.9954 46.6069C84.3469 46.1121 84.6204 45.4155 84.8157 44.5171C85.011 43.6056 85.1086 42.5835 85.1086 41.4507V30.3374H89.9133V40.4741C89.9133 41.8022 89.7506 43.0067 89.425 44.0874C89.1125 45.1551 88.6568 46.021 88.0579 46.6851L83.9954 46.6069ZM116.124 54.0093C114.861 54.0093 113.488 53.8856 112.003 53.6382C110.532 53.4038 109.158 53.0653 107.882 52.6226L108.8 48.9702C110.011 49.3218 111.228 49.5887 112.452 49.771C113.689 49.9533 114.777 50.0444 115.714 50.0444C117.706 50.0184 119.223 49.5431 120.265 48.6187C121.32 47.6812 121.847 46.314 121.847 44.5171V34.2241H113.82C113.481 34.9533 113.214 35.7736 113.019 36.6851C112.837 37.5835 112.745 38.4884 112.745 39.3999V40.8452C113.292 41.0145 114.126 41.0991 115.245 41.0991V44.7905C114.712 44.8426 114.139 44.8687 113.527 44.8687C112.394 44.8687 111.372 44.758 110.46 44.5366C109.562 44.3153 108.722 43.9767 107.941 43.521L107.902 40.9429C107.902 39.6538 108.045 38.4103 108.331 37.2124C108.631 36.0145 109.041 35.0184 109.562 34.2241H106.925V30.3374H126.808V43.7163C126.808 46.021 126.346 47.9416 125.421 49.478C124.51 51.0145 123.253 52.1538 121.652 52.896C120.05 53.6382 118.208 54.0093 116.124 54.0093ZM133.546 30.3374H143.019C149.126 30.3374 152.198 33.2801 152.238 39.1655V53.5601H147.296L147.277 38.814C147.277 37.2384 146.932 36.0796 146.241 35.3374C145.564 34.5952 144.497 34.2241 143.038 34.2241H138.488V53.5601H133.527L133.546 30.3374ZM174.796 33.4819L166.73 53.5601H161.456L169.445 34.2241H156.437V23.5601H161.398V30.3374H174.796V33.4819ZM190.206 34.2241H187.863V30.3374H195.167V53.5601H190.206V34.2241ZM213.234 43.0913L218.859 51.2358V53.5601H201.046V49.6538H212.491L199.366 30.3374H204.913L210.323 38.7749L214.601 30.3374H220.167L213.234 43.0913ZM233.351 37.8179C233.351 36.6851 233.025 35.8062 232.374 35.1812C231.723 34.5431 230.805 34.2241 229.62 34.2241H222.238V30.3374H229.894C231.639 30.3374 233.142 30.6499 234.406 31.2749C235.669 31.8869 236.632 32.7788 237.296 33.9507C237.973 35.1095 238.312 36.4963 238.312 38.1108V53.5601H233.351V37.8179ZM254.562 30.3374C257.622 30.3374 259.92 31.0731 261.456 32.5444C263.006 34.0158 263.781 36.2228 263.781 39.1655V53.5601H258.839L258.82 38.814C258.82 37.2254 258.481 36.0666 257.804 35.3374C257.127 34.5952 256.059 34.2241 254.601 34.2241H251.456C251.157 34.9403 250.916 35.7866 250.734 36.7632C250.551 37.7397 250.46 38.6968 250.46 39.6343V46.8413C250.46 49.0939 249.894 50.8257 248.761 52.0366C247.628 53.2345 246.02 53.8335 243.937 53.8335C243.142 53.8335 242.264 53.7619 241.3 53.6187V49.7319C241.756 49.771 242.192 49.7905 242.609 49.7905C243.637 49.7905 244.399 49.5236 244.894 48.9897C245.389 48.4559 245.636 47.6226 245.636 46.4897V40.064C245.636 39.0483 245.773 38.0002 246.046 36.9194C246.32 35.8257 246.697 34.9272 247.179 34.2241H243.214V30.3374H254.562ZM293.077 38.7554C293.077 37.1929 292.7 36.047 291.945 35.3179C291.189 34.5887 290.011 34.2241 288.409 34.2241H279.386V30.3374H288.741C291.736 30.3374 294.028 31.0796 295.616 32.564C297.218 34.0353 298.019 36.1642 298.019 38.9507V53.5601H293.077V38.7554ZM279.347 45.6108C279.347 44.3218 279.458 43.3192 279.679 42.603C279.913 41.8869 280.213 41.2358 280.577 40.6499H284.562C284.275 41.7957 284.132 43.2996 284.132 45.1616V53.5601H279.347V45.6108ZM305.597 39.6929C305.727 38.6382 306.007 37.6421 306.437 36.7046C306.879 35.7541 307.394 35.0119 307.98 34.478C308.071 34.3869 308.182 34.3022 308.312 34.2241L308.273 34.146C307.739 34.2371 307.075 34.3934 306.281 34.6147C305.486 34.8231 304.79 35.0379 304.191 35.2593L303.097 31.6265C304.607 31.0796 306.339 30.6434 308.292 30.3179C310.245 29.9793 312.068 29.8101 313.761 29.8101C317.107 29.8101 319.653 30.6825 321.398 32.4272C323.156 34.159 324.041 36.7111 324.054 40.0835V53.5601H314.171V49.6733H319.093V39.4585C319.093 37.6616 318.709 36.2879 317.941 35.3374C317.172 34.3739 316.072 33.8921 314.64 33.8921C313.468 33.8921 312.517 34.3478 311.788 35.2593C311.059 36.1707 310.603 37.4533 310.421 39.1069L308.878 53.5601H303.976L305.597 39.6929Z" fill="black"/>
<path d="M1.63086 0.52002V65.84" stroke="#2E7CE2" stroke-width="3"/>
</svg>