<svg width="35" height="35" viewBox="0 0 66 66" fill="none" xmlns="http://www.w3.org/2000/svg">
<g filter="url(#filter0_d)">
<circle cx="29" cy="29" r="28" fill="white"/>
</g>
<path d="M29 14C20.7287 14 14 20.7287 14 29C14 37.2713 20.7287 44 29 44C37.2713 44 44 37.2713 44 29C44 20.7287 37.2713 14 29 14ZM36.1338 36.7586C35.89 37.0024 35.5701 37.1251 35.2501 37.1251C34.9301 37.1251 34.6099 37.0024 34.3664 36.7586L28.1163 30.5088C27.8812 30.2751 27.7501 29.9574 27.7501 29.6251V21.5C27.7501 20.8088 28.3099 20.2501 29 20.2501C29.6901 20.2501 30.2499 20.8088 30.2499 21.5V29.1076L36.1338 34.9912C36.6225 35.4801 36.6225 36.27 36.1338 36.7586Z" fill="#186CCF"/>
<defs>
<filter id="filter0_d" x="0" y="0" width="66" height="66" filterUnits="userSpaceOnUse" color-interpolation-filters="sRGB">
<feFlood flood-opacity="0" result="BackgroundImageFix"/>
<feColorMatrix in="SourceAlpha" type="matrix" values="0 0 0 0 0 0 0 0 0 0 0 0 0 0 0 0 0 0 127 0"/>
<feOffset dx="4" dy="4"/>
<feGaussianBlur stdDeviation="2.5"/>
<feColorMatrix type="matrix" values="0 0 0 0 0 0 0 0 0 0 0 0 0 0 0 0 0 0 0.25 0"/>
<feBlend mode="normal" in2="BackgroundImageFix" result="effect1_dropShadow"/>
<feBlend mode="normal" in="SourceGraphic" in2="effect1_dropShadow" result="shape"/>
</filter>
</defs>
</svg>
